PathFileType	4	(X/Y/Z)	Run_400 02
DataRate	CameraRate	NumFrames	NumMarkers	Units	OrigDataRate	OrigDataStartFrame	OrigNumFrames
100	100	4	42	mm	100	4	128
Frame#	Time	LASI			RASI			LPSI			RPSI			RTH1			RTH3			LTH1			LTH2			LTH3			RTB1			RTB2			LTB1			LTB2			RCAL			RTOE			LCAL			LTOE			LACR			RACR			CLAV			C7			RUA1			RUA2			RUA3			RLEL			RMEL			LUA1			LUA2			LUA3			LLEL			LMEL			RFAsuperior			RFAradius			RFAulna			LFAsuperior			LFAradius			LFAulna			RTH2			RTB3			RMT5			LMT5			LTB3			
		X1	Y1	Z1	X2	Y2	Z2	X3	Y3	Z3	X4	Y4	Z4	X5	Y5	Z5	X6	Y6	Z6	X7	Y7	Z7	X8	Y8	Z8	X9	Y9	Z9	X10	Y10	Z10	X11	Y11	Z11	X12	Y12	Z12	X13	Y13	Z13	X14	Y14	Z14	X15	Y15	Z15	X16	Y16	Z16	X17	Y17	Z17	X18	Y18	Z18	X19	Y19	Z19	X20	Y20	Z20	X21	Y21	Z21	X22	Y22	Z22	X23	Y23	Z23	X24	Y24	Z24	X25	Y25	Z25	X26	Y26	Z26	X27	Y27	Z27	X28	Y28	Z28	X29	Y29	Z29	X30	Y30	Z30	X31	Y31	Z31	X32	Y32	Z32	X33	Y33	Z33	X34	Y34	Z34	X35	Y35	Z35	X36	Y36	Z36	X37	Y37	Z37	X38	Y38	Z38	X39	Y39	Z39	X40	Y40	Z40	X41	Y41	Z41	X42	Y42	Z42	

1	0.19	813.705542	1025.511056	-465.823733	804.232064	1033.770975	-220.322352	639.259957	1113.427255	-389.28013	631.818576	1106.716145	-305.068504	764.7045900000001	896.75999	-149.044884	819.242891	663.087925	-193.821937	725.681094	913.007209	-528.148425	752.035441	779.39453	-503.879265	632.494561	673.777935	-501.534779	956.824842	454.155559	-243.529062	930.64304	342.301662	-201.124191	515.193923	486.059625	-437.22177	423.33152	531.836183	-493.495266	914.349375	108.492605	-309.734565	1140.801907	125.878623	-265.073201	170.822017	573.383474	-378.543612	137.501061	344.083652	-392.118689	797.034866	1567.657693	-472.878976	737.027802	1541.716401	-148.253891	831.5054689999999	1514.315918	-279.669804	706.105653	1585.613659	-335.744808	640.389774	1468.943742	-75.818544	560.492797	1418.570468	-127.742858	563.299381	1378.034202	-57.720596	510.883577	1294.903252	-32.645848	492.177972	1285.591023	-111.49815	791.2026080000001	1481.946518	-585.384221	732.6598310000001	1399.252652	-607.86107	797.990991	1380.832058	-652.994491	821.614043	1300.39669	-692.833949	760.862722	1254.221391	-670.317851	536.069133	1216.554303	-22.3156	683.339051	1071.018038	-53.23138	618.887138	1041.193212	-53.821774	901.249371	1259.094083	-604.607961	946.129147	1275.468666	-454.343759	951.375821	1211.822299	-477.147646	852.7174220000001	780.603854	-163.468675	998.178992	258.400908	-254.169102	1104.90374	66.962439	-197.074533	90.399512	384.04809	-459.480911	310.952564	465.912658	-416.60328	
2	0.2	814.733796	1020.528263	-465.014824	803.895353	1026.990975	-218.645445	638.799189	1105.432021	-389.359325	631.215808	1099.318093	-305.018542	761.374626	889.769988	-149.331551	817.780983	657.324033	-194.918626	729.410876	905.451198	-527.856885	759.568877	772.75696	-504.285813	643.6318	663.979561	-502.740969	951.2182299999999	444.128849	-244.646446	922.033059	333.075478	-202.751737	526.175612	482.622363	-437.853033	437.793564	535.443799	-494.254351	894.86744	102.978408	-311.56366	1123.330293	109.231571	-275.848175	188.354965	594.940456	-378.257735	141.665396	368.080192	-397.593169	795.178048	1561.241803	-471.52351	737.18751	1532.976865	-145.897396	831.237436	1507.604774	-278.297429	705.413691	1578.406366	-333.086854	642.290213	1457.948887	-72.384457	562.138294	1405.88833	-123.979327	567.709918	1364.64311	-54.864219	517.116203	1280.444775	-28.953674	497.736907	1270.61278	-107.407628	786.248566	1475.831982	-584.331285	726.4648549999999	1394.221623	-606.281061	790.965651	1374.864184	-652.245724	812.6630270000001	1294.269687	-692.439814	750.277554	1250.024592	-669.365977	543.973563	1202.480321	-18.9487	694.156346	1060.02195	-51.493106	630.186603	1029.091952	-51.596069	892.783724	1246.270405	-607.658182	941.959444	1254.475277	-457.861669	943.5368580000001	1191.947702	-483.563319	852.794042	775.509016	-164.044475	985.886484	247.211349	-256.920896	1086.627745	54.928725	-204.715188	98.346659	412.575556	-464.959641	320.978832	477.931256	-417.3072	
3	0.21	815.25527	1014.387921	-464.319134	803.705645	1020.059568	-216.689258	638.003359	1096.553462	-389.819459	630.467819	1091.101274	-305.217735	759.6178169999999	882.8270659999999	-151.18089	817.863657	650.98741	-194.516829	733.0519870000001	896.95029	-527.663635	767.4731880000001	765.410793	-504.993386	655.579014	653.126716	-504.25771	945.298772	432.719487	-247.271939	912.101839	322.848314	-205.895821	539.346364	478.150862	-438.921254	454.692664	537.901828	-495.526709	866.578399	96.98464800000001	-314.287191	1097.966716	92.20420300000001	-287.892628	208.615587	614.000213	-378.436397	150.683921	389.966522	-403.233955	793.296747	1553.926836	-470.415159	737.505227	1523.018009	-143.506262	831.057552	1499.744236	-276.849751	704.906372	1569.950948	-330.422748	644.5619830000001	1445.133544	-68.92279000000001	564.1900900000001	1391.911276	-119.105242	572.877154	1349.615369	-51.273322	524.126649	1264.592242	-24.709432	504.080563	1254.253914	-103.024021	781.015689	1468.772787	-583.299267	720.004908	1388.286219	-604.4350480000001	783.660125	1367.949107	-651.3107199999999	803.28289	1287.343555	-692.163584	739.0171350000001	1245.212506	-668.0833260000001	552.967661	1187.144395	-15.301062	706.508588	1048.864382	-50.23825	643.138471	1016.38099	-49.540413	883.536434	1232.63317	-611.093781	936.509625	1232.018047	-462.125505	934.570519	1170.704424	-491.005339	854.84078	770.073727	-165.174823	968.3604329999999	234.507143	-263.116126	1059.727745	48.309913	-210.635349	111.085688	438.127212	-470.45851	334.173794	488.322546	-418.544061	
4	0.22	815.110214	1006.808149	-463.54571	803.357826	1012.597619	-215.28208	636.519504	1086.748786	-390.47361	628.867467	1082.055124	-305.606318	760.059164	875.886887	-153.50688	819.096895	644.0526149999999	-193.485575	736.538501	887.320518	-527.363037	775.61995	757.269513	-505.41564	668.364314	641.354726	-505.714861	938.355762	421.022872	-252.424891	899.943254	312.769893	-211.672523	554.792109	473.076155	-440.506832	473.948218	538.93066	-497.476608	830.810374	90.297343	-319.624487	1065.037924	79.042005	-296.561539	231.442457	630.326094	-379.55261	164.128062	409.342863	-408.409355	791.3587199999999	1545.886682	-469.47947	738.129598	1512.106266	-140.936463	831.317727	1490.730237	-275.152987	704.441505	1560.344701	-327.710932	647.257972	1430.36687	-65.54836400000001	566.901404	1376.466152	-113.370433	578.5531570000001	1333.041765	-46.838386	531.890096	1247.583584	-20.023407	511.06475	1236.835469	-98.289975	775.579708	1460.867314	-582.337854	713.2879380000001	1381.611079	-602.316296	776.210046	1360.277554	-650.409901	793.636588	1279.867468	-692.110427	727.650111	1239.769087	-666.947951	563.07257	1170.867903	-11.510287	720.2905029999999	1037.812201	-49.721822	657.809677	1003.479593	-47.709004	873.599138	1218.392342	-615.02016	929.692556	1208.278969	-467.306387	924.71275	1148.185624	-499.604067	857.254015	764.058538	-166.488485	945.252919	221.95258	-273.303714	1024.616594	47.441663	-213.509763	128.467462	460.082843	-475.955937	350.519778	496.914452	-420.002052	
